<?xml version="1.0" encoding="UTF-8"?>
<svg width="135" height="20" version="1.1" viewBox="0 0 35.718725 5.2916689" xmlns="http://www.w3.org/2000/svg" xmlns:cc="http://creativecommons.org/ns#" xmlns:dc="http://purl.org/dc/elements/1.1/" xmlns:rdf="http://www.w3.org/1999/02/22-rdf-syntax-ns#">
 <metadata>
  <rdf:RDF>
   <cc:Work rdf:about="">
    <dc:format>image/svg+xml</dc:format>
    <dc:type rdf:resource="http://purl.org/dc/dcmitype/StillImage"/>
    <dc:title/>
   </cc:Work>
  </rdf:RDF>
 </metadata>
 <g transform="matrix(1.1275 0 0 1 .046676 -291.67)">
  <rect x=".8884" y="292.6" width="29.819" height="3.432" fill="#424242" fill-rule="evenodd" stroke="#424242" stroke-linecap="square" stroke-linejoin="round" stroke-width="1.8596" style="paint-order:fill markers stroke"/>
  <text x="1.6332046" y="295.07837" fill="#000000" font-family="KFhimaji" font-size="10.583px" letter-spacing="0px" stroke-width=".26458" word-spacing="0px" style="line-height:1.25" xml:space="preserve"><tspan x="1.6332046" y="295.07837" fill="#ffffff" font-family="'DejaVu Sans', Verdana, Geneva, sans-serif" font-size="2.8222px" stroke-width=".26458">Open Source</tspan></text>
  <g transform="translate(3.59 12.775)" fill-rule="evenodd" stroke="#0e0e0e">
   <path d="m18.631 279.69h8.6215v3.7033h-8.6215z" stroke-linecap="square" stroke-linejoin="round" stroke-width="1.5884" style="paint-order:fill markers stroke"/>
   <path d="m18.249 279.31h5.6613v4.4683h-5.6613z" stroke-width=".82333" style="paint-order:fill markers stroke"/>
  </g>
  <g transform="matrix(.27875 -.3143 .27875 .3143 -56.257 202.8)" fill="#d40000">
   <path d="m2.7084 289.06a2.6458 2.6458 0 0 0 -1.3854 0.35399 2.6458 2.6458 0 0 0 -1.3229 2.2913v5.2917h5.2917a2.6458 2.6458 0 0 0 2.2913 -1.3229 2.6458 2.6458 0 0 0 0 -2.6458 2.6458 2.6458 0 0 0 -2.2913 -1.3229 2.6458 2.6458 0 0 0 -1.3229 -2.2913 2.6458 2.6458 0 0 0 -1.2604 -0.35399z" fill="#d40000" stroke-width=".26458"/>
  </g>
 </g>
</svg>
